<?xml version="1.0" encoding="UTF-8" standalone="no"?>
<!DOCTYPE svg PUBLIC "-//W3C//DTD SVG 20010904//EN"
              "http://www.w3.org/TR/2001/REC-SVG-20010904/DTD/svg10.dtd">

<svg xmlns="http://www.w3.org/2000/svg"
     width="130px" height="55px"
     viewBox="0 0 400 233">
  <path id="Selection"
        fill="#f6f6f6" stroke="#f6f6f6" stroke-width="1"
        d="M 250.36,7.71
           C 251.25,6.53 253.20,5.93 254.55,5.31
             254.55,5.31 262.27,1.66 262.27,1.66
             262.97,1.34 265.20,0.24 265.80,0.18
             267.01,0.06 268.15,1.31 268.70,2.25
             268.70,2.25 273.21,4.41 273.21,4.41
             273.21,4.41 281.90,9.42 281.90,9.42
             281.90,9.42 285.12,11.72 285.12,11.72
             285.12,11.72 285.44,14.14 285.44,14.14
             285.44,14.14 285.44,112.80 285.44,112.80
             285.44,112.80 285.44,139.48 285.44,139.48
             285.44,139.48 285.44,145.26 285.44,145.26
             285.44,145.26 285.95,147.32 285.95,147.32
             285.95,147.32 288.66,147.83 288.66,147.83
             288.66,147.83 292.84,147.83 292.84,147.83
             292.84,147.83 292.84,157.15 292.84,157.15
             292.84,157.15 269.35,157.15 269.35,157.15
             269.35,157.15 257.74,157.15 257.74,157.15
             257.74,157.15 257.74,69.74 257.74,69.74
             257.74,69.74 257.74,66.53 257.74,66.53
             257.74,66.53 257.74,63.31 257.74,63.31
             257.74,63.31 257.74,62.03 257.74,62.03
             257.74,62.03 257.44,57.21 257.44,57.21
             257.44,57.21 257.44,14.46 257.44,14.46
             257.44,14.46 253.58,15.75 253.58,15.75
             252.87,16.70 251.75,17.08 250.68,17.59
             250.68,17.59 243.93,20.70 243.93,20.70
             243.93,20.70 235.47,24.56 235.47,24.56
             235.47,24.56 218.50,32.51 218.50,32.51
             218.50,32.51 211.42,35.86 211.42,35.86
             210.38,36.31 208.48,36.99 207.89,37.99
             207.50,38.66 207.56,39.73 207.56,40.49
             207.56,40.49 207.56,50.78 207.56,50.78
             207.56,50.78 219.93,46.60 219.93,46.60
             221.98,45.76 224.98,43.96 227.19,44.19
             229.03,44.39 230.78,45.59 232.34,46.51
             232.34,46.51 238.78,50.32 238.78,50.32
             238.78,50.32 243.93,53.41 243.93,53.41
             244.70,53.88 246.04,54.57 246.49,55.34
             246.89,56.02 246.82,57.08 246.82,57.85
             246.82,57.85 246.82,147.51 246.82,147.51
             246.82,147.51 254.22,147.51 254.22,147.51
             254.22,147.51 254.22,153.94 254.22,153.94
             254.22,153.94 253.93,156.26 253.93,156.26
             253.93,156.26 251.33,156.86 251.33,156.86
             251.33,156.86 244.25,157.15 244.25,157.15
             244.25,157.15 225.58,157.15 225.58,157.15
             225.58,157.15 218.83,156.83 218.83,156.83
             218.83,156.83 218.83,56.88 218.83,56.88
             218.83,56.88 180.24,70.29 180.24,70.29
             180.24,70.29 172.81,72.85 172.81,72.85
             172.81,72.85 169.14,74.45 169.14,74.45
             169.14,74.45 168.62,77.13 168.62,77.13
             168.62,77.13 168.62,157.48 168.62,157.48
             168.62,157.48 156.40,157.80 156.40,157.80
             156.40,157.80 156.40,150.73 156.40,150.73
             156.45,147.80 157.59,149.09 158.78,147.70
             159.39,146.98 159.29,145.84 159.29,144.94
             159.29,144.94 159.29,70.38 159.29,70.38
             159.29,69.69 159.22,68.55 159.62,67.97
             160.10,67.28 161.42,66.95 162.19,66.68
             162.19,66.68 167.98,64.67 167.98,64.67
             167.98,64.67 186.00,58.42 186.00,58.42
             186.00,58.42 198.23,54.31 198.23,54.31
             198.23,54.31 198.23,34.39 198.23,34.39
             198.23,33.64 198.16,32.55 198.56,31.90
             199.11,31.00 200.82,30.43 201.77,30.00
             201.77,30.00 209.49,26.31 209.49,26.31
             209.49,26.31 228.48,17.45 228.48,17.45
             228.48,17.45 236.85,13.63 236.85,13.63
             236.85,13.63 245.21,9.66 245.21,9.66
             246.85,8.89 248.53,7.81 250.36,7.71 Z
           M 210.78,67.17
           C 211.29,68.46 211.10,69.97 211.10,71.35
             211.10,71.35 211.10,78.74 211.10,78.74
             211.10,79.96 211.59,82.82 210.66,83.58
             210.19,83.96 207.95,84.51 207.24,84.71
             207.24,84.71 199.52,86.93 199.52,86.93
             199.52,86.93 183.43,91.51 183.43,91.51
             183.43,91.51 174.74,93.84 174.74,93.84
             174.74,93.84 174.74,79.70 174.74,79.70
             174.74,79.70 201.13,70.55 201.13,70.55
             201.13,70.55 210.78,67.17 210.78,67.17 Z
           M 211.10,107.66
           C 211.10,107.66 200.48,109.76 200.48,109.76
             200.48,109.76 183.11,113.06 183.11,113.06
             183.11,113.06 176.99,114.26 176.99,114.26
             176.29,114.38 175.24,114.48 174.74,113.85
             174.33,113.36 174.42,112.14 174.42,111.52
             174.42,111.52 174.42,104.45 174.42,104.45
             174.42,103.46 174.33,101.20 175.02,100.46
             175.49,99.95 176.63,99.81 177.31,99.62
             177.31,99.62 183.43,98.03 183.43,98.03
             183.43,98.03 191.47,96.12 191.47,96.12
             191.47,96.12 211.42,91.27 211.42,91.27
             211.42,91.27 211.10,97.70 211.10,97.70
             211.10,97.70 211.10,107.66 211.10,107.66 Z
           M 175.38,100.27
           C 175.38,100.27 175.06,100.27 175.06,100.27
             175.06,100.27 175.38,100.59 175.38,100.59
             175.38,100.59 175.38,100.27 175.38,100.27 Z
           M 174.42,121.48
           C 174.42,121.48 187.93,119.13 187.93,119.13
             187.93,119.13 200.16,117.17 200.16,117.17
             200.16,117.17 211.10,115.70 211.10,115.70
             211.10,115.70 211.10,129.19 211.10,129.19
             211.10,129.83 211.18,131.06 210.77,131.57
             210.29,132.18 209.22,132.06 208.53,132.12
             208.53,132.12 203.38,132.67 203.38,132.67
             203.38,132.67 198.23,133.11 198.23,133.11
             198.23,133.11 191.15,134.00 191.15,134.00
             191.15,134.00 188.58,134.00 188.58,134.00
             188.58,134.00 181.50,134.63 181.50,134.63
             180.05,134.85 175.60,135.83 174.75,134.63
             174.35,133.96 174.42,132.79 174.42,132.09
             174.42,132.09 174.42,121.48 174.42,121.48 Z
           M 174.42,135.30
           C 174.42,135.30 174.74,135.30 174.74,135.30
             174.74,135.30 174.42,135.62 174.42,135.62
             174.42,135.62 174.42,135.30 174.42,135.30 Z
           M 174.42,142.37
           C 174.42,142.37 183.43,141.73 183.43,141.73
             183.43,141.73 187.29,141.44 187.29,141.44
             187.29,141.44 198.87,140.76 198.87,140.76
             198.87,140.76 207.88,140.12 207.88,140.12
             207.88,140.12 210.59,140.45 210.59,140.45
             210.59,140.45 211.10,143.01 211.10,143.01
             211.10,143.01 211.10,156.19 211.10,156.19
             211.10,156.19 184.07,156.19 184.07,156.19
             184.07,156.19 179.89,156.51 179.89,156.51
             179.89,156.51 174.74,156.51 174.74,156.51
             174.74,156.51 174.42,151.69 174.42,151.69
             174.42,151.69 174.42,142.37 174.42,142.37 Z
           M 28.32,206.00
           C 31.48,205.44 39.23,205.64 42.80,205.68
             45.12,205.71 46.61,205.59 46.66,208.25
             46.66,208.25 46.66,224.97 46.66,224.97
             46.66,225.55 46.70,226.59 46.48,227.11
             45.92,228.39 43.08,229.52 41.83,230.14
             38.20,231.96 34.87,232.42 30.89,232.71
             30.89,232.71 28.32,232.98 28.32,232.98
             28.32,232.98 25.74,232.71 25.74,232.71
             25.74,232.71 23.17,232.53 23.17,232.53
             14.21,230.96 5.87,226.06 2.43,217.25
             0.46,212.21 0.58,209.30 0.64,204.08
             0.67,202.15 1.11,200.28 1.61,198.43
             4.81,186.70 15.34,180.56 27.03,180.30
             32.54,180.17 40.83,181.86 45.05,185.54
             45.59,186.02 46.22,186.61 46.36,187.35
             46.50,188.06 45.93,189.02 45.62,189.64
             44.47,191.92 43.06,194.00 40.23,193.76
             38.43,193.61 36.25,192.04 34.43,191.32
             32.45,190.54 30.11,190.25 28.00,190.17
             23.02,189.99 18.01,192.40 15.19,196.50
             14.65,197.29 14.25,198.36 13.90,199.26
             11.29,205.94 12.23,215.54 18.02,220.36
             21.79,223.51 26.53,224.06 31.21,223.40
             35.00,222.87 36.02,222.87 36.04,219.82
             36.04,219.82 36.04,214.36 36.04,214.36
             34.49,214.36 30.87,214.63 29.68,213.76
             27.88,212.47 28.32,208.05 28.32,206.00 Z
           M 73.05,217.25
           C 74.42,218.02 75.35,219.33 76.59,220.30
             78.80,222.03 81.52,222.92 84.31,223.02
             86.73,223.12 89.60,222.56 91.71,221.38
             93.34,220.47 95.19,218.65 97.18,219.48
             97.94,219.80 98.83,220.58 99.44,221.14
             100.16,221.80 101.65,223.17 101.85,224.14
             102.37,226.72 97.22,229.70 95.25,230.62
             91.01,232.62 86.63,232.73 82.06,232.68
             75.71,232.60 68.61,229.38 64.42,224.64
             60.48,220.19 58.60,213.80 58.57,207.93
             58.54,202.40 59.16,198.10 61.82,193.15
             65.94,185.49 75.01,180.40 83.67,180.29
             89.00,180.23 93.01,180.76 97.83,183.29
             97.83,183.29 102.98,186.72 102.98,186.72
             102.56,187.97 102.14,188.53 101.44,189.61
             100.81,190.58 100.30,191.34 99.42,192.12
             96.33,194.86 94.06,192.59 91.07,191.21
             89.46,190.46 87.06,189.86 85.28,189.96
             76.92,190.44 71.71,195.92 70.78,204.08
             70.67,205.04 70.46,206.00 70.51,206.97
             70.60,209.07 71.02,211.40 71.68,213.40
             72.17,214.86 72.92,215.70 73.05,217.25 Z
           M 323.41,180.43
           C 331.33,179.46 339.98,182.08 345.70,187.69
             354.41,196.23 356.04,212.15 348.74,222.07
             344.31,228.09 335.77,232.67 328.24,232.68
             328.24,232.68 323.41,232.68 323.41,232.68
             321.02,232.65 318.65,231.99 316.42,231.17
             307.64,227.93 302.70,222.01 300.33,213.07
             299.81,211.11 299.19,207.34 299.31,205.36
             299.46,202.64 299.83,199.91 300.74,197.33
             303.15,190.45 309.16,184.52 316.01,182.07
             318.97,181.02 320.41,180.88 323.41,180.43 Z
           M 374.26,182.54
           C 375.42,181.02 378.55,180.79 380.37,180.60
             384.60,180.16 388.95,180.59 392.92,182.20
             394.25,182.73 397.11,184.31 397.46,185.76
             397.74,186.93 396.76,188.63 396.18,189.61
             395.79,190.29 394.99,191.59 394.43,192.08
             392.88,193.42 389.94,191.67 388.42,190.91
             385.26,189.33 381.30,188.31 378.12,190.48
             375.96,191.95 375.00,194.32 376.39,196.68
             376.39,196.68 378.44,199.26 378.44,199.26
             379.79,199.36 380.72,199.94 381.98,200.38
             381.98,200.38 388.74,202.63 388.74,202.63
             391.20,203.43 393.96,204.72 395.71,206.68
             400.68,212.20 399.83,221.22 395.11,226.57
             390.35,231.98 385.56,232.76 378.76,232.68
             376.73,232.65 370.88,231.75 369.75,230.11
             367.92,230.13 363.74,227.80 363.45,225.93
             363.22,224.48 365.22,221.32 366.26,220.36
             368.29,218.57 369.84,219.25 372.00,220.36
             374.90,221.80 377.58,224.18 381.01,224.13
             385.85,224.07 390.16,218.92 386.42,214.69
             384.62,212.67 382.20,211.94 379.73,211.14
             375.23,209.68 370.42,208.71 367.36,204.72
             363.55,199.62 364.12,192.83 367.36,187.59
             368.72,185.28 371.34,182.51 374.26,182.54 Z
           M 186.00,198.93
           C 185.39,202.36 185.68,211.63 185.68,215.65
             185.68,215.65 185.68,229.79 185.68,229.79
             185.67,232.06 185.46,232.32 183.11,232.36
             183.11,232.36 177.63,232.36 177.63,232.36
             177.01,232.34 176.14,232.39 175.71,231.84
             175.31,231.33 175.38,230.10 175.38,229.46
             175.38,229.46 175.38,192.18 175.38,192.18
             175.38,192.18 175.38,183.51 175.38,183.51
             175.39,182.79 175.30,181.77 175.90,181.25
             176.65,180.60 178.90,180.62 179.89,180.62
             179.89,180.62 182.14,180.62 182.14,180.62
             183.46,180.63 186.20,180.84 187.28,181.54
             188.90,182.61 190.48,186.20 191.30,188.01
             191.30,188.01 197.76,201.32 197.76,201.32
             197.76,201.32 200.94,207.61 200.94,207.61
             201.62,208.99 202.41,210.23 202.41,211.79
             202.41,211.79 204.67,214.04 204.67,214.04
             204.67,214.04 208.49,206.33 208.49,206.33
             208.49,206.33 213.15,197.01 213.15,197.01
             213.15,197.01 216.89,190.58 216.89,190.58
             216.97,189.24 218.36,186.18 219.47,185.44
             219.48,178.91 229.53,180.75 233.63,180.94
             233.63,180.94 233.63,232.04 233.63,232.04
             233.63,232.04 225.58,232.36 225.58,232.36
             225.58,232.36 223.66,231.84 223.66,231.84
             223.66,231.84 223.33,229.46 223.33,229.46
             223.33,229.46 223.33,199.26 223.33,199.26
             221.46,200.90 219.81,204.99 218.55,207.29
             217.87,208.53 217.47,209.76 216.25,210.50
             216.10,212.31 214.71,214.35 213.85,215.97
             213.85,215.97 210.65,222.07 210.65,222.07
             209.97,223.44 209.32,225.16 208.04,226.08
             206.97,226.85 205.61,226.93 204.34,226.88
             197.79,226.62 197.15,217.93 194.05,214.36
             194.05,214.36 191.84,209.51 191.84,209.51
             191.84,209.51 186.00,198.93 186.00,198.93 Z
           M 249.40,180.94
           C 249.40,180.94 254.22,180.62 254.22,180.62
             254.22,180.62 264.20,180.62 264.20,180.62
             264.20,180.62 270.31,180.94 270.31,180.94
             273.09,180.95 276.12,181.60 278.68,182.68
             286.17,185.86 288.92,191.80 288.36,199.58
             288.12,203.01 287.05,206.46 284.77,209.12
             280.63,213.96 273.80,215.00 267.74,215.00
             266.22,215.00 262.53,214.67 261.63,216.06
             261.24,216.68 261.30,217.82 261.30,218.54
             261.30,218.54 261.30,229.79 261.30,229.79
             261.29,230.60 261.32,231.52 260.56,232.03
             259.96,232.42 258.79,232.36 258.09,232.36
             258.09,232.36 249.40,232.36 249.40,232.36
             249.40,232.36 249.72,225.93 249.72,225.93
             249.72,225.93 249.72,218.22 249.72,218.22
             249.72,218.22 249.40,212.75 249.40,212.75
             249.40,212.75 249.40,191.22 249.40,191.22
             249.40,191.22 249.40,180.94 249.40,180.94 Z
           M 111.67,232.35
           C 111.67,232.35 115.18,223.17 115.18,223.17
             115.18,223.17 126.62,193.15 126.62,193.15
             126.62,193.15 130.08,184.16 130.08,184.16
             130.93,182.10 130.73,180.98 133.23,180.94
             133.23,180.94 141.27,180.94 141.27,180.94
             141.93,180.94 143.08,180.85 143.62,181.26
             144.29,181.75 144.95,183.96 145.24,184.79
             145.24,184.79 148.42,192.83 148.42,192.83
             148.42,192.83 163.48,232.04 163.48,232.04
             160.70,232.59 157.61,233.08 154.79,232.51
             152.22,232.00 152.09,231.37 150.93,231.07
             150.93,231.07 149.56,227.54 149.56,227.54
             149.14,226.07 148.44,222.38 147.21,221.53
             146.59,221.11 145.84,221.12 145.13,221.11
             145.13,221.11 133.55,221.11 133.55,221.11
             131.91,221.11 129.10,220.45 127.84,221.38
             125.74,222.93 126.13,228.11 123.89,229.79
             123.55,231.53 122.29,231.96 120.68,232.35
             117.67,233.07 114.68,232.50 111.67,232.35 Z
           M 261.30,206.33
           C 261.30,206.33 265.81,206.33 265.81,206.33
             267.49,206.32 270.36,206.09 271.92,205.54
             272.94,205.18 274.19,204.68 274.99,203.91
             277.40,201.36 277.28,195.14 274.99,192.52
             272.86,189.98 269.88,189.62 266.77,189.61
             265.77,189.61 262.24,189.41 261.62,190.18
             261.22,190.67 261.30,191.88 261.30,192.51
             261.30,192.51 261.30,206.33 261.30,206.33 Z
           M 340.47,198.93
           C 340.47,198.93 337.22,194.45 337.22,194.45
             334.02,191.13 329.26,189.55 324.70,189.99
             313.49,191.08 309.81,202.54 312.23,212.11
             313.01,215.17 314.26,218.41 316.99,220.29
             320.00,222.36 323.67,223.08 327.27,223.04
             330.24,223.00 331.95,222.04 333.39,222.07
             334.75,220.67 336.60,219.77 337.75,218.15
             340.21,214.68 341.26,210.54 341.42,206.33
             341.42,206.33 340.47,198.93 340.47,198.93 Z
           M 137.73,192.18
           C 137.73,192.18 136.77,192.18 136.77,192.18
             136.36,196.72 130.90,207.38 130.65,212.75
             130.65,212.75 144.17,212.75 144.17,212.75
             144.17,212.75 142.05,204.08 142.05,204.08
             142.05,204.08 137.73,192.18 137.73,192.18 Z" />
</svg>
